<svg xmlns="http://www.w3.org/2000/svg" viewBox="0 0 800 600">
  <rect x="10" y="10" width="780" height="580" fill="#f0f0f0" stroke="#000000" stroke-width="2"/>
  <text x="400" y="40" font-family="Arial" font-size="24" text-anchor="middle">Sede Sucursal Piura</text>
  
  <!-- Router -->
  <rect x="350" y="80" width="100" height="60" fill="#ff9999" stroke="#000000" stroke-width="2"/>
  <text x="400" y="115" font-family="Arial" font-size="14" text-anchor="middle">Router</text>
  <text x="400" y="135" font-family="Arial" font-size="12" text-anchor="middle">172.4.192.1</text>
  
  <!-- Firewall -->
  <rect x="350" y="180" width="100" height="60" fill="#99ccff" stroke="#000000" stroke-width="2"/>
  <text x="400" y="215" font-family="Arial" font-size="14" text-anchor="middle">Firewall</text>
  
  <!-- Switch Multicapa -->
  <rect x="350" y="280" width="100" height="60" fill="#99ff99" stroke="#000000" stroke-width="2"/>
  <text x="400" y="315" font-family="Arial" font-size="14" text-anchor="middle">Switch Multicapa</text>
  
  <!-- Switches de Acceso -->
  <rect x="150" y="400" width="100" height="60" fill="#ffff99" stroke="#000000" stroke-width="2"/>
  <text x="200" y="435" font-family="Arial" font-size="14" text-anchor="middle">Switch Acceso 1</text>
  
  <rect x="350" y="400" width="100" height="60" fill="#ffff99" stroke="#000000" stroke-width="2"/>
  <text x="400" y="435" font-family="Arial" font-size="14" text-anchor="middle">Switch Acceso 2</text>
  
  <rect x="550" y="400" width="100" height="60" fill="#ffff99" stroke="#000000" stroke-width="2"/>
  <text x="600" y="435" font-family="Arial" font-size="14" text-anchor="middle">Switch Acceso 3</text>
  
  <!-- Conexiones -->
  <line x1="400" y1="140" x2="400" y2="180" stroke="#000000" stroke-width="2"/>
  <line x1="400" y1="240" x2="400" y2="280" stroke="#000000" stroke-width="2"/>
  <line x1="400" y1="340" x2="400" y2="400" stroke="#000000" stroke-width="2"/>
  <line x1="400" y1="340" x2="200" y2="400" stroke="#000000" stroke-width="2"/>
  <line x1="400" y1="340" x2="600" y2="400" stroke="#000000" stroke-width="2"/>
  
  <!-- Leyenda -->
  <rect x="620" y="20" width="20" height="20" fill="#ff9999" stroke="#000000" stroke-width="1"/>
  <text x="645" y="35" font-family="Arial" font-size="12">Router</text>
  
  <rect x="620" y="50" width="20" height="20" fill="#99ccff" stroke="#000000" stroke-width="1"/>
  <text x="645" y="65" font-family="Arial" font-size="12">Firewall</text>
  
  <rect x="620" y="80" width="20" height="20" fill="#99ff99" stroke="#000000" stroke-width="1"/>
  <text x="645" y="95" font-family="Arial" font-size="12">Switch Multicapa</text>
  
  <rect x="620" y="110" width="20" height="20" fill="#ffff99" stroke="#000000" stroke-width="1"/>
  <text x="645" y="125" font-family="Arial" font-size="12">Switch de Acceso</text>
</svg>
